<svg width="48" height="48" viewBox="0 0 48 48" fill="none" xmlns="http://www.w3.org/2000/svg">
<path d="M25 6V8.00948M19.0182 35.8068C22.9936 36.2538 27.0064 36.2538 30.9818 35.8068C30.9536 36.1934 30.893 36.5774 30.8002 36.9544L30.6364 37.6212C30.1228 39.71 28.491 41.3356 26.4078 41.834C25.4822 42.0554 24.5178 42.0554 23.5922 41.834C21.509 41.3356 19.8773 39.71 19.3636 37.6212L19.1997 36.9544C19.107 36.5774 19.0463 36.1934 19.0182 35.8068ZM13.0556 17.2652C14.1642 13.1735 17.3 9.9065 21.3168 8.60446C23.7854 7.80422 26.4698 7.8029 28.9342 8.61676C32.8796 9.9198 35.9 13.1417 36.9586 17.1767L38.125 21.6224L39.0596 25.855C39.3474 27.1586 39.7392 28.4996 39.9456 29.8188C39.9814 30.0474 40 30.282 40 30.5208C40 32.6532 38.505 34.4906 36.4248 34.9144L35.6896 35.064C28.635 36.5012 21.365 36.5012 14.3104 35.064L13.5752 34.9144C11.4951 34.4906 10 32.6532 10 30.5208C10 30.282 10.0186 30.0474 10.0544 29.8188C10.2609 28.4996 10.6525 27.1586 10.9404 25.855L11.875 21.6224L13.0556 17.2652Z" stroke="white" stroke-width="3" stroke-linecap="round"/>
</svg>
