<svg width="48" height="48" viewBox="0 0 48 48" fill="none" xmlns="http://www.w3.org/2000/svg">
<path d="M25.5882 8.06904C25.5882 7.20248 24.8772 6.5 24 6.5C23.1228 6.5 22.4118 7.20248 22.4118 8.06904V16.4372C22.4118 17.3037 23.1228 18.0062 24 18.0062C24.8772 18.0062 25.5882 17.3037 25.5882 16.4372V8.06904Z" fill="white"/>
<path d="M36.728 11.1436C36.1076 10.5309 35.102 10.5309 34.4818 11.1436C33.8616 11.7564 33.8616 12.7498 34.4818 13.3626C36.555 15.4106 37.9668 18.02 38.5386 20.8606C39.1106 23.7014 38.8172 26.6458 37.6952 29.3218C36.5732 31.9976 34.6732 34.2848 32.2356 35.894C29.7978 37.503 26.9318 38.362 24 38.362C21.0682 38.362 18.2022 37.503 15.7645 35.894C13.3268 34.2848 11.4268 31.9976 10.3049 29.3218C9.1829 26.646 8.88934 23.7014 9.4613 20.8608C10.0333 18.02 11.4451 15.4106 13.5182 13.3626C14.1384 12.7499 14.1384 11.7564 13.5182 11.1437C12.8979 10.5309 11.8923 10.5309 11.2721 11.1437C8.75472 13.6306 7.0404 16.7991 6.34586 20.2486C5.65134 23.698 6.0078 27.2734 7.37018 30.5226C8.73256 33.772 11.0397 36.5492 13.9998 38.5032C16.9598 40.457 20.44 41.5 24 41.5C27.56 41.5 31.0402 40.457 34.0002 38.5032C36.9604 36.5492 39.2674 33.772 40.6298 30.5226C41.9922 27.2734 42.3486 23.698 41.6542 20.2484C40.9596 16.7991 39.2452 13.6305 36.728 11.1436Z" fill="white"/>
</svg>
